# xmcd
# Track frame offsets:
# 150
# 12766
# 25114
# 37828
# 50929
# 63925
# 75019
# 84868
# 96539
# 106679
# 117032
# 126366
# 137731
# 150146
# 162523
#
# Disc length: 2316 seconds
# Revision: 0
# Processed by: cddbd v1.5.1PL0 Copyright (c) Steve Scherf et al.
# Submitted via: VisiTrax 2.9.10.228 - For more info visit www.synapsa.com
#
DISCID=a7090a0f
DTITLE=Owens, Bucks - CB90084
DYEAR=1900
DGENRE=Karaoke
TTITLE0=Owens, Buck - Act Naturally
TTITLE1=Owens, Buck - Together Again
TTITLE2=Owens, Buck - Ruby (Are You Mad At Your Man)
TTITLE3=Owens, Buck - Under Your Spell Again
TTITLE4=Owens, Buck - Made In Japan
TTITLE5=Owens, Buck - I've Got A Tiger By The Tail
TTITLE6=Owens, Buck - Love's Gonna Live Here
TTITLE7=Owens, Buck - Waitin' In Your Welfare Line
TTITLE8=Owens, Buck - Sam's Place
TTITLE9=Owens, Buck - It Takes People Like You (To Make People
TTITLE10=Owens, Buck - Hello Trouble Come On In
TTITLE11=Owens, Buck - Before You Go
TTITLE12=Owens, Buck - Above And Beyond The Call Of Love
TTITLE13=Owens, Buck - My Heart Skips A Beat
TTITLE14=Owens, Buck - I Don't Care (Just As Long As You Love Me)
EXTD=
EXTT0=
EXTT1=
EXTT2=
EXTT3=
EXTT4=
EXTT5=
EXTT6=
EXTT7=
EXTT8=
EXTT9=
EXTT10=
EXTT11=
EXTT12=
EXTT13=
EXTT14=
PLAYORDER=
